<svg xmlns="http://www.w3.org/2000/svg" viewBox="0 0 320 240" role="img" aria-labelledby="t"><title id="t">Camper swimming in the pool</title><defs><linearGradient id="s" x1="0" y1="0" x2="0" y2="1"><stop offset="0" stop-color="#7dd3fc"/><stop offset="1" stop-color="#bae6fd"/></linearGradient></defs><rect width="320" height="240" fill="url(#s)"/><circle cx="262" cy="52" r="22" fill="#fde68a" opacity=".9"/><path d="M0 170 Q80 140 160 162 T320 150 V240 H0Z" fill="#38bdf8"/><path d="M0 170 q20 -10 40 0 t40 0 t40 0 t40 0 t40 0 t40 0 t40 0 t40 0" stroke="#e0f2fe" stroke-width="5" fill="none"/><path d="M0 200 q20 -10 40 0 t40 0 t40 0 t40 0 t40 0 t40 0 t40 0 t40 0" stroke="#e0f2fe" stroke-width="5" fill="none"/><g transform="translate(150 158)"><circle r="14" fill="#f5c9a3"/><path d="M-10 -8 a14 14 0 0 1 22 -4" fill="#dc2626"/><path d="M14 4 q30 -34 58 -20" stroke="#f5c9a3" stroke-width="9" stroke-linecap="round" fill="none"/><path d="M-12 8 q-26 12 -48 4" stroke="#f5c9a3" stroke-width="9" stroke-linecap="round" fill="none"/></g><g fill="#f97316"><rect x="40" y="100" width="36" height="10" rx="5"/><rect x="244" y="112" width="36" height="10" rx="5"/></g></svg>
